<svg width="10" height="8" viewBox="0 0 10 8" fill="none" xmlns="http://www.w3.org/2000/svg">
<path d="M9.86215 0.521613C9.79278 0.439819 9.69341 0.393066 9.58927 0.393066H7.65774V1.41871C7.65774 1.88999 7.25359 2.27341 6.75684 2.27341C6.26008 2.27341 5.85593 1.88999 5.85593 1.41871V0.393066H4.05413V1.41871C4.05413 1.88999 3.64999 2.27341 3.15323 2.27341C2.65648 2.27341 2.25233 1.88999 2.25233 1.41871V0.393066H0.32089C0.216656 0.393066 0.117286 0.439819 0.0479169 0.521613C-0.0215425 0.603408 -0.0544254 0.712468 -0.0425335 0.821357L0.605665 6.78452C0.617737 7.45683 1.14179 7.9999 1.78431 7.9999H8.12584C8.76828 7.9999 9.29233 7.45683 9.30449 6.78443L9.95269 0.821271C9.96449 0.712468 9.93161 0.603408 9.86215 0.521613Z" fill="#FFC600"/>
</svg>
