<?xml version="1.0" encoding="utf-8"?>
<!-- Generated by IcoMoon.io -->
<svg version="1.1" xmlns="http://www.w3.org/2000/svg" xmlns:xlink="http://www.w3.org/1999/xlink" width="752" height="80" viewBox="0 0 752 80">
<svg id="icon-nav-arrow" width="32" height="32" viewBox="0 0 32 32" x="0" y="0">
<path d="M7.531 24.88l10.469-10.491-10.469-10.491 3.223-3.223 13.714 13.714-13.714 13.714-3.223-3.223z"></path>
</svg>
<svg id="icon-radio-on" width="32" height="32" viewBox="0 0 32 32" x="48" y="0">
<path fill="none" stroke="#000" stroke-linejoin="miter" stroke-linecap="butt" stroke-miterlimit="4" stroke-width="2.6667" d="M30.667 16c0 8.1-6.567 14.667-14.667 14.667s-14.667-6.566-14.667-14.667c0-8.1 6.566-14.667 14.667-14.667s14.667 6.566 14.667 14.667z"></path>
<path d="M21.333 16c0 2.946-2.388 5.333-5.333 5.333s-5.333-2.388-5.333-5.333c0-2.946 2.388-5.333 5.333-5.333s5.333 2.388 5.333 5.333z"></path>
</svg>
<svg id="icon-radio-off" width="32" height="32" viewBox="0 0 32 32" x="96" y="0">
<path fill="none" stroke-linejoin="miter" stroke-linecap="butt" stroke-miterlimit="4" stroke-width="2.6667" stroke="#000" d="M30.667 16c0 8.1-6.567 14.667-14.667 14.667s-14.667-6.566-14.667-14.667c0-8.1 6.566-14.667 14.667-14.667s14.667 6.566 14.667 14.667z"></path>
</svg>
<svg id="icon-checkbox-off" width="32" height="32" viewBox="0 0 32 32" x="144" y="0">
<path fill="none" stroke-linejoin="miter" stroke-linecap="butt" stroke-miterlimit="4" stroke-width="2.6667" stroke="#000" d="M2.667 1.333h26.667c0.736 0 1.333 0.597 1.333 1.333v26.667c0 0.736-0.597 1.333-1.333 1.333h-26.667c-0.736 0-1.333-0.597-1.333-1.333v-26.667c0-0.736 0.597-1.333 1.333-1.333z"></path>
</svg>
<svg id="icon-checkbox-on" width="32" height="32" viewBox="0 0 32 32" x="192" y="0">
<path fill="none" stroke="#000" stroke-linejoin="miter" stroke-linecap="butt" stroke-miterlimit="4" stroke-width="2.6667" d="M2.667 1.333h26.667c0.736 0 1.333 0.597 1.333 1.333v26.667c0 0.736-0.597 1.333-1.333 1.333h-26.667c-0.736 0-1.333-0.597-1.333-1.333v-26.667c0-0.736 0.597-1.333 1.333-1.333z"></path>
<path d="M9.436 14.333l-2.256 2.333 6.769 7 11.282-11.667-2.256-2.333-9.026 9.333-4.513-4.667z"></path>
</svg>
<svg id="icon-icon-twitter" width="32" height="32" viewBox="0 0 32 32" x="240" y="0">
<path fill="#fff" opacity="0.3" d="M16 32c-2.167 0-4.24-0.422-6.219-1.266s-3.682-1.979-5.109-3.406-2.563-3.13-3.406-5.109c-0.844-1.979-1.266-4.052-1.266-6.219s0.422-4.24 1.266-6.219c0.844-1.979 1.979-3.682 3.406-5.109s3.13-2.563 5.109-3.406c1.979-0.844 4.052-1.266 6.219-1.266s4.24 0.422 6.219 1.266c1.979 0.844 3.682 1.979 5.109 3.406s2.563 3.13 3.406 5.109c0.844 1.979 1.266 4.052 1.266 6.219s-0.422 4.24-1.266 6.219c-0.844 1.979-1.979 3.682-3.406 5.109s-3.13 2.563-5.109 3.406c-1.979 0.844-4.052 1.266-6.219 1.266zM25.406 8c-0.125 0.063-0.312 0.177-0.562 0.344l-0.609 0.406-0.578 0.313-0.656 0.219c-0.771-0.854-1.719-1.281-2.844-1.281-2.437 0-3.656 1.021-3.656 3.063v1.844c-3.354-0.167-5.927-1.396-7.719-3.687-0.521 0.542-0.781 1.135-0.781 1.781 0 1.375 0.51 2.417 1.531 3.125-0.125 0-0.302 0.010-0.531 0.031s-0.411 0.021-0.547 0c-0.135-0.021-0.286-0.073-0.453-0.156 0 0.958 0.255 1.755 0.766 2.391s1.214 1.047 2.109 1.234c-0.208 0.25-0.5 0.375-0.875 0.375-0.333 0-0.625-0.094-0.875-0.281 0 0.812 0.391 1.443 1.172 1.891s1.661 0.682 2.641 0.703c-0.375 0.563-0.922 0.984-1.641 1.266s-1.484 0.422-2.297 0.422c-0.292 0-0.693-0.073-1.203-0.219s-0.776-0.219-0.797-0.219c0.333 0.667 1.016 1.24 2.047 1.719s2.339 0.719 3.922 0.719c1.396 0 2.698-0.245 3.906-0.734s2.24-1.141 3.094-1.953c0.854-0.813 1.588-1.74 2.203-2.781s1.073-2.12 1.375-3.234 0.453-2.214 0.453-3.297c0-0.042 0.125-0.13 0.375-0.266s0.542-0.318 0.875-0.547c0.333-0.229 0.583-0.469 0.75-0.719-1.125 0-1.875 0.021-2.25 0.062 0.729-0.437 1.281-1.281 1.656-2.531z"></path>
</svg>
<svg id="icon-icon-instagram" width="32" height="32" viewBox="0 0 32 32" x="288" y="0">
<path fill="#fff" opacity="0.3" d="M21 16c0 1.326-0.527 2.598-1.465 3.535s-2.209 1.465-3.535 1.465-2.598-0.527-3.535-1.465c-0.938-0.938-1.464-2.209-1.464-3.535 0-0.285 0.030-0.563 0.082-0.833h-1.748v6.662c0 0.463 0.375 0.838 0.838 0.838h11.658c0.222-0 0.435-0.089 0.592-0.246s0.245-0.37 0.245-0.592v-6.662h-1.748c0.052 0.27 0.082 0.548 0.082 0.833zM16 19.333c0.438-0 0.871-0.086 1.276-0.254s0.772-0.413 1.081-0.723c0.309-0.31 0.555-0.677 0.723-1.082s0.253-0.838 0.253-1.276c-0-0.438-0.086-0.871-0.254-1.276s-0.413-0.772-0.723-1.082c-0.31-0.31-0.677-0.555-1.082-0.723s-0.838-0.254-1.276-0.254c-0.884 0-1.732 0.352-2.357 0.977s-0.976 1.474-0.976 2.358 0.352 1.732 0.977 2.357c0.626 0.625 1.474 0.976 2.358 0.976zM20 12.5h1.998c0.133 0 0.26-0.053 0.354-0.146s0.147-0.221 0.148-0.354v-1.998c0-0.133-0.053-0.261-0.147-0.355s-0.222-0.147-0.355-0.147h-1.998c-0.133 0-0.261 0.053-0.355 0.147s-0.147 0.222-0.147 0.355v1.998c0.002 0.275 0.227 0.5 0.502 0.5zM16 0c-4.244 0-8.313 1.686-11.314 4.686s-4.686 7.070-4.686 11.314c0 4.244 1.686 8.313 4.686 11.314s7.070 4.686 11.314 4.686c2.101 0 4.182-0.414 6.123-1.218s3.705-1.983 5.191-3.468 2.664-3.25 3.468-5.191c0.804-1.941 1.218-4.022 1.218-6.123s-0.414-4.182-1.218-6.123c-0.804-1.941-1.983-3.705-3.468-5.191s-3.25-2.664-5.191-3.468c-1.941-0.804-4.022-1.218-6.123-1.218zM24.333 22.482c0 1.018-0.833 1.852-1.852 1.852h-12.963c-1.018 0-1.852-0.833-1.852-1.852v-12.963c0-1.018 0.833-1.852 1.852-1.852h12.963c1.018 0 1.852 0.833 1.852 1.852v12.963z"></path>
</svg>
<svg id="icon-icon-facebook" width="32" height="32" viewBox="0 0 32 32" x="336" y="0">
<path fill="#fff" opacity="0.3" d="M31.997 16c0-8.837-7.163-16-15.999-16s-15.999 7.163-15.999 16c0 7.984 5.851 14.603 13.499 15.803v-11.179h-4.061v-4.625h4.061v-3.524c0-4.011 2.389-6.225 6.043-6.225 1.751 0 3.581 0.312 3.581 0.312v3.937h-2.016c-1.987 0-2.607 1.233-2.607 2.499v3.003h4.437l-0.709 4.625h-3.728v11.179c7.648-1.2 13.499-7.819 13.499-15.804h-0.001z"></path>
</svg>
<svg id="icon-icon-cart_yellow" width="32" height="32" viewBox="0 0 32 32" x="384" y="0">
<path fill="#ffc600" d="M31.559 4.869c-0.222-0.262-0.54-0.411-0.873-0.411h-6.181v3.282c0 1.508-1.293 2.735-2.883 2.735s-2.883-1.227-2.883-2.735v-3.282h-5.766v3.282c0 1.508-1.293 2.735-2.883 2.735s-2.883-1.227-2.883-2.735v-3.282h-6.181c-0.334 0-0.652 0.15-0.874 0.411s-0.328 0.611-0.289 0.959l2.074 19.082c0.039 2.151 1.716 3.889 3.772 3.889h20.293c2.056 0 3.733-1.738 3.772-3.89l2.074-19.082c0.038-0.348-0.067-0.697-0.29-0.959z"></path>
</svg>
<svg id="icon-icon-chart_yellow" width="32" height="32" viewBox="0 0 32 32" x="432" y="0">
<path fill="#ffc600" d="M2.934 10.774h5.6v18.293h-5.6v-18.293zM13.387 2.934h5.227v26.133h-5.227v-26.133zM23.84 17.867h5.227v11.2h-5.227v-11.2z"></path>
</svg>
<svg id="icon-icon-user_yellow" width="32" height="32" viewBox="0 0 32 32" x="480" y="0">
<path fill="#ffc600" d="M16 1.066c3.831 0 6.933 3.341 6.933 7.467s-3.103 7.467-6.933 7.467-6.933-3.341-6.933-7.467c0-4.125 3.103-7.467 6.933-7.467zM16 30.933c0 0 13.867 0 13.867-3.733 0-4.48-6.76-9.333-13.867-9.333s-13.867 4.853-13.867 9.333c0 3.733 13.867 3.733 13.867 3.733z"></path>
</svg>
<svg id="icon-icon-plus" width="32" height="32" viewBox="0 0 32 32" x="528" y="0">
<path opacity="0.3" fill="#000" d="M31.4 13.8v4.4h-13.2v13.2h-4.4v-13.2h-13.2v-4.4h13.2v-13.2h4.4v13.2h13.2z"></path>
</svg>
<svg id="icon-icon-chart" width="32" height="32" viewBox="0 0 32 32" x="576" y="0">
<path d="M2.934 10.773h5.6v18.293h-5.6v-18.293zM13.387 2.933h5.227v26.133h-5.227v-26.133zM23.84 17.867h5.227v11.2h-5.227v-11.2z"></path>
</svg>
<svg id="icon-icon-arrow_nav" width="32" height="32" viewBox="0 0 32 32" x="624" y="0">
<path d="M11.060 22.513l6.107-6.12-6.107-6.12 1.88-1.88 8 8-8 8-1.88-1.88z"></path>
</svg>
<svg id="icon-icon-up-dir" width="32" height="32" viewBox="0 0 32 32" x="672" y="0">
<path opacity="0.2" fill="#000" d="M5.333 24.889h19.556l-9.778-17.778-9.778 17.778z"></path>
</svg>
<svg id="icon-icon-down-dir" width="32" height="32" viewBox="0 0 32 32" x="720" y="0">
<path d="M24.889 7.111h-19.556l9.778 17.778 9.778-17.778z"></path>
</svg>
<svg id="icon-icon-search" width="32" height="32" viewBox="0 0 32 32" x="0" y="48">
<path d="M13.333 24c2.367-0 4.665-0.793 6.529-2.251l5.861 5.861 1.885-1.885-5.861-5.861c1.459-1.864 2.252-4.163 2.252-6.531 0-5.881-4.785-10.667-10.667-10.667s-10.667 4.785-10.667 10.667c0 5.881 4.785 10.667 10.667 10.667zM13.333 5.333c4.412 0 8 3.588 8 8s-3.588 8-8 8c-4.412 0-8-3.588-8-8s3.588-8 8-8z"></path>
</svg>
<svg id="icon-icon-cart" width="32" height="32" viewBox="0 0 32 32" x="48" y="48">
<path d="M31.559 8.069c-0.222-0.262-0.54-0.411-0.873-0.411h-6.181v3.282c0 1.508-1.293 2.735-2.883 2.735s-2.883-1.227-2.883-2.735v-3.282h-5.766v3.282c0 1.508-1.293 2.735-2.883 2.735s-2.883-1.227-2.883-2.735v-3.282h-6.181c-0.334 0-0.652 0.15-0.874 0.411s-0.328 0.611-0.289 0.959l2.074 19.082c0.039 2.151 1.716 3.889 3.772 3.889h20.293c2.056 0 3.733-1.738 3.772-3.889l2.074-19.082c0.038-0.348-0.067-0.697-0.29-0.959z"></path>
<path d="M10.091 12.034c0.636 0 1.153-0.491 1.153-1.094v-6.017c0-1.689 1.796-2.735 3.459-2.735h2.883c1.751 0 2.883 1.073 2.883 2.735v6.017c0 0.603 0.517 1.094 1.153 1.094s1.153-0.491 1.153-1.094v-6.017c0-2.853-2.182-4.923-5.189-4.923h-2.883c-3.179 0-5.766 2.209-5.766 4.923v6.017c0 0.603 0.517 1.094 1.153 1.094z"></path>
</svg>
<svg id="icon-icon-user" width="32" height="32" viewBox="0 0 32 32" x="96" y="48">
<path d="M16 5.333c2.736 0 4.952 2.387 4.952 5.333s-2.216 5.333-4.952 5.333c-2.736 0-4.952-2.387-4.952-5.333s2.216-5.333 4.952-5.333zM16 26.667c0 0 9.905 0 9.905-2.667 0-3.2-4.829-6.667-9.905-6.667s-9.905 3.467-9.905 6.667c0 2.667 9.905 2.667 9.905 2.667z"></path>
</svg>
<svg id="icon-slider-button" width="32" height="32" viewBox="0 0 32 32" x="144" y="48">
<path d="M16 2.783c7.288 0 13.217 5.93 13.217 13.217s-5.93 13.217-13.217 13.217-13.217-5.93-13.217-13.217 5.93-13.217 13.217-13.217zM16 0c-8.836 0-16 7.164-16 16 0 8.838 7.164 16 16 16 8.838 0 16-7.162 16-16 0-8.836-7.162-16-16-16z"></path>
<path d="M16 12.527c1.917 0.003 3.47 1.556 3.473 3.472v0c-0.003 1.917-1.556 3.47-3.472 3.473h-0c-1.917-0.003-3.47-1.556-3.473-3.472v-0c0.003-1.917 1.556-3.47 3.472-3.473h0zM16 9.745c-3.455 0-6.255 2.801-6.255 6.255s2.801 6.255 6.255 6.255v0c3.455 0 6.255-2.801 6.255-6.255s-2.801-6.255-6.255-6.255v0z"></path>
</svg>
<svg id="icon-slider-button-empty" width="32" height="32" viewBox="0 0 32 32" x="192" y="48">
<path d="M16 2.783c7.288 0 13.217 5.93 13.217 13.217s-5.93 13.217-13.217 13.217-13.217-5.93-13.217-13.217 5.93-13.217 13.217-13.217zM16 0c-8.836 0-16 7.164-16 16 0 8.838 7.164 16 16 16 8.838 0 16-7.162 16-16 0-8.836-7.162-16-16-16z"></path>
</svg>
<svg id="icon-search" width="32" height="32" viewBox="0 0 32 32" x="240" y="48">
<path d="M31.4 28.6l-6.208-6.208c1.752-2.307 2.807-5.226 2.808-8.392v-0c0-7.732-6.268-14-14-14s-14 6.268-14 14c0 7.732 6.268 14 14 14v0c0 0 0 0 0 0 3.164 0 6.082-1.055 8.42-2.833l-0.034 0.025 6.214 6.208c0.37 0.368 0.76 0.6 1.4 0.6 1.105 0 2-0.895 2-2v0c0-0.009 0-0.020 0-0.032 0-0.541-0.231-1.027-0.599-1.367l-0.001-0.001zM4 14c0-5.524 4.476-10 10-10s10 4.476 10 10-4.476 10-10 10-10-4.476-10-10z"></path>
</svg>
<svg id="icon-modal-close" width="32" height="32" viewBox="0 0 32 32" x="288" y="48">
<path fill="#f0c52e" d="M16 0c-8.837 0-16 7.163-16 16s7.163 16 16 16 16-7.163 16-16-7.163-16-16-16zM22.677 21.569l-0.865 0.83-5.812-5.57-5.811 5.57-0.866-0.83 5.811-5.57-5.811-5.57 0.865-0.829 5.811 5.57 5.811-5.57 0.865 0.829-5.812 5.57 5.812 5.569z"></path>
</svg>
<svg id="icon-logo-html" width="32" height="32" viewBox="0 0 32 32" x="336" y="48">
<path fill="#ffc600" d="M16.113 0.016l-0.139-0.016-12.68 1.329v23.21l12.68 7.545 12.68-7.544v-23.212l-12.541-1.313zM26.841 11.414l-10.846-6.393-0.001-0.098-0.082 0.047-0.083-0.053v0.103l-10.724 6.386v-8.443l10.869-1.141 10.868 1.141v8.452zM15.911 6.388l10.84 6.318-4.216 2.485-6.676-3.973-0.013 1.332 5.557 3.306-0.809 0.477-4.734-2.816-0.013 1.332 3.602 2.141-0.736 0.492-2.853-1.682-0.013 1.33 1.744 1.027-1.694 1.017-10.688-6.354 10.702-6.433zM5.106 14.237l10.74 6.392 0.015 0.983-7.475-4.45-0.014 1.333 7.51 4.513 0.017 1.013-7.504-4.461-0.012 1.331 7.592 4.562 7.664-4.585-0.010-4.872 3.214-1.916v9.432l-10.869 6.468-10.868-6.467v-9.272z"></path>
</svg>
<svg id="icon-filter-button" width="32" height="32" viewBox="0 0 32 32" x="384" y="48">
<path fill="#ababab" opacity="0.3" d="M16 27.826c-7.684 0-13.913-6.23-13.913-13.913v2.783c0 7.683 6.229 13.913 13.913 13.913 7.683 0 13.913-6.23 13.913-13.913v-2.783c0 7.683-6.23 13.913-13.913 13.913z"></path>
<path fill="#fff" d="M29.913 13.913c0 7.684-6.229 13.913-13.913 13.913s-13.913-6.229-13.913-13.913c0-7.684 6.229-13.913 13.913-13.913s13.913 6.229 13.913 13.913z"></path>
<path fill="#ababab" d="M18.783 13.913c0 1.537-1.246 2.783-2.783 2.783s-2.783-1.246-2.783-2.783c0-1.537 1.246-2.783 2.783-2.783s2.783 1.246 2.783 2.783z"></path>
</svg>
</svg>
