<?xml version="1.0" encoding="utf-8"?>
<!-- Generated by IcoMoon.io -->
<svg version="1.1" xmlns="http://www.w3.org/2000/svg" xmlns:xlink="http://www.w3.org/1999/xlink" width="752" height="32" viewBox="0 0 752 32">
<svg id="icon-popular-4" width="53" height="32" viewBox="0 0 53 32" x="0" y="0">
<path d="M48.722 2.006c0.37 0.709 0.595 1.516 0.595 2.372v10.389c0 2.273-1.522 4.198-3.567 4.874-0.652 1.963-1.86 3.867-3.964 5.136-4.271 2.575-15.323 2.381-15.359 2.381-0.038 0-11.083 0.194-15.355-2.381-2.076-1.253-3.302-3.125-3.959-5.060-2.175-0.595-3.818-2.585-3.818-4.949v-10.388c0-0.831 0.21-1.616 0.561-2.31-1.803 0.448-3.856 1.338-3.856 3.069 0 3.073 0 12.646 0 14.761 0 5.047 5.828 12.029 26.416 12.029s26.416-6.982 26.416-12.029c0-2.115 0-11.687 0-14.761-0.001-1.814-2.253-2.705-4.109-3.131z"></path>
<path d="M10.122 18.934h32.257c2.739 0 4.959-2.222 4.959-4.961v-9.082c0-2.739-2.22-4.96-4.959-4.96h-32.257c-2.739 0-4.96 2.221-4.96 4.96v9.082c0 2.739 2.221 4.961 4.96 4.961zM41.204 4.661c0.427 0 0.772 0.346 0.772 0.773s-0.346 0.772-0.772 0.772-0.772-0.346-0.772-0.772c0-0.427 0.345-0.773 0.772-0.773zM41.204 6.65c0.427 0 0.772 0.346 0.772 0.772s-0.346 0.772-0.772 0.772-0.772-0.346-0.772-0.772c0-0.426 0.345-0.772 0.772-0.772zM41.204 8.638c0.427 0 0.772 0.346 0.772 0.772s-0.346 0.772-0.772 0.772-0.772-0.346-0.772-0.772c0-0.427 0.345-0.772 0.772-0.772zM41.204 10.522c0.427 0 0.772 0.347 0.772 0.772s-0.346 0.772-0.772 0.772-0.772-0.345-0.772-0.772c0-0.426 0.345-0.772 0.772-0.772zM41.204 12.511c0.427 0 0.772 0.346 0.772 0.772s-0.346 0.772-0.772 0.772-0.772-0.347-0.772-0.772c0-0.427 0.345-0.772 0.772-0.772zM39.215 4.661c0.427 0 0.772 0.346 0.772 0.773s-0.345 0.772-0.772 0.772c-0.426 0-0.772-0.346-0.772-0.772s0.346-0.773 0.772-0.773zM39.215 12.511c0.427 0 0.772 0.346 0.772 0.772s-0.345 0.772-0.772 0.772c-0.426 0-0.772-0.347-0.772-0.772 0-0.427 0.346-0.772 0.772-0.772zM37.228 4.661c0.426 0 0.772 0.346 0.772 0.773s-0.346 0.772-0.772 0.772c-0.427 0-0.772-0.346-0.772-0.772s0.346-0.773 0.772-0.773zM37.228 6.65c0.426 0 0.772 0.346 0.772 0.772s-0.346 0.772-0.772 0.772c-0.427 0-0.772-0.346-0.772-0.772s0.346-0.772 0.772-0.772zM37.228 8.638c0.426 0 0.772 0.346 0.772 0.772s-0.346 0.772-0.772 0.772c-0.427 0-0.772-0.346-0.772-0.772s0.346-0.772 0.772-0.772zM37.228 10.522c0.426 0 0.772 0.347 0.772 0.772s-0.346 0.772-0.772 0.772c-0.427 0-0.772-0.345-0.772-0.772s0.346-0.772 0.772-0.772zM37.228 12.511c0.426 0 0.772 0.346 0.772 0.772s-0.346 0.772-0.772 0.772c-0.427 0-0.772-0.347-0.772-0.772 0-0.427 0.346-0.772 0.772-0.772zM33.46 4.661c0.427 0 0.772 0.346 0.772 0.773s-0.345 0.772-0.772 0.772-0.772-0.346-0.772-0.772c-0.001-0.427 0.346-0.773 0.772-0.773zM33.46 8.638c0.427 0 0.772 0.346 0.772 0.772s-0.345 0.772-0.772 0.772-0.772-0.346-0.772-0.772c-0.001-0.427 0.346-0.772 0.772-0.772zM33.46 10.549c0.427 0 0.772 0.345 0.772 0.772s-0.345 0.772-0.772 0.772-0.772-0.347-0.772-0.772c-0.001-0.427 0.346-0.772 0.772-0.772zM33.46 12.511c0.427 0 0.772 0.346 0.772 0.772s-0.345 0.772-0.772 0.772-0.772-0.347-0.772-0.772c-0.001-0.427 0.346-0.772 0.772-0.772zM31.471 4.661c0.427 0 0.773 0.346 0.773 0.773s-0.346 0.772-0.773 0.772c-0.426 0-0.772-0.346-0.772-0.772s0.347-0.773 0.772-0.773zM31.471 8.638c0.427 0 0.773 0.346 0.773 0.772s-0.346 0.772-0.773 0.772c-0.426 0-0.772-0.346-0.772-0.772s0.347-0.772 0.772-0.772zM31.471 12.511c0.427 0 0.773 0.346 0.773 0.772s-0.346 0.772-0.773 0.772c-0.426 0-0.772-0.347-0.772-0.772-0-0.427 0.347-0.772 0.772-0.772zM29.483 4.661c0.426 0 0.772 0.346 0.772 0.773s-0.347 0.772-0.772 0.772c-0.427 0-0.772-0.346-0.772-0.772s0.345-0.773 0.772-0.773zM29.483 6.65c0.426 0 0.772 0.346 0.772 0.772s-0.347 0.772-0.772 0.772c-0.427 0-0.772-0.346-0.772-0.772s0.345-0.772 0.772-0.772zM29.483 8.638c0.426 0 0.772 0.346 0.772 0.772s-0.347 0.772-0.772 0.772c-0.427 0-0.772-0.346-0.772-0.772s0.345-0.772 0.772-0.772zM29.483 12.511c0.426 0 0.772 0.346 0.772 0.772s-0.347 0.772-0.772 0.772c-0.427 0-0.772-0.347-0.772-0.772-0-0.427 0.345-0.772 0.772-0.772zM25.402 4.661c0.427 0 0.772 0.346 0.772 0.773s-0.346 0.772-0.772 0.772-0.772-0.346-0.772-0.772c-0-0.427 0.345-0.773 0.772-0.773zM25.402 6.65c0.427 0 0.772 0.346 0.772 0.772s-0.346 0.772-0.772 0.772-0.772-0.346-0.772-0.772c-0-0.426 0.345-0.772 0.772-0.772zM25.402 8.638c0.427 0 0.772 0.346 0.772 0.772s-0.346 0.772-0.772 0.772-0.772-0.346-0.772-0.772c-0-0.427 0.345-0.772 0.772-0.772zM25.402 10.549c0.427 0 0.772 0.345 0.772 0.772s-0.346 0.772-0.772 0.772-0.772-0.347-0.772-0.772c-0-0.427 0.345-0.772 0.772-0.772zM25.402 12.511c0.427 0 0.772 0.346 0.772 0.772s-0.346 0.772-0.772 0.772-0.772-0.347-0.772-0.772c-0-0.427 0.345-0.772 0.772-0.772zM23.414 6.65c0.427 0 0.772 0.346 0.772 0.772s-0.345 0.772-0.772 0.772-0.772-0.346-0.772-0.772c0-0.426 0.345-0.772 0.772-0.772zM19.228 6.545c0.426 0 0.772 0.346 0.772 0.772s-0.347 0.772-0.772 0.772c-0.427 0-0.773-0.346-0.773-0.772s0.346-0.772 0.773-0.772zM19.228 8.533c0.426 0 0.772 0.346 0.772 0.773s-0.347 0.773-0.772 0.773c-0.427 0-0.773-0.347-0.773-0.773s0.346-0.773 0.773-0.773zM17.24 4.556c0.426 0 0.772 0.346 0.772 0.773s-0.347 0.772-0.772 0.772c-0.427 0-0.772-0.346-0.772-0.772s0.345-0.773 0.772-0.773zM17.24 6.545c0.426 0 0.772 0.346 0.772 0.772s-0.347 0.772-0.772 0.772c-0.427 0-0.772-0.346-0.772-0.772s0.345-0.772 0.772-0.772zM17.24 8.533c0.426 0 0.772 0.346 0.772 0.773s-0.347 0.773-0.772 0.773c-0.427 0-0.772-0.347-0.772-0.773s0.345-0.773 0.772-0.773zM17.24 10.522c0.426 0 0.772 0.347 0.772 0.772s-0.347 0.772-0.772 0.772c-0.427 0-0.772-0.345-0.772-0.772s0.345-0.772 0.772-0.772zM15.145 6.545c0.427 0 0.772 0.346 0.772 0.772s-0.346 0.772-0.772 0.772-0.772-0.346-0.772-0.772c0-0.426 0.345-0.772 0.772-0.772zM15.145 8.533c0.427 0 0.772 0.346 0.772 0.773s-0.346 0.773-0.772 0.773-0.772-0.347-0.772-0.773c0-0.427 0.345-0.773 0.772-0.773zM15.145 10.522c0.427 0 0.772 0.347 0.772 0.772s-0.346 0.772-0.772 0.772-0.772-0.345-0.772-0.772c0-0.426 0.345-0.772 0.772-0.772zM15.145 12.511c0.427 0 0.772 0.346 0.772 0.772s-0.346 0.772-0.772 0.772-0.772-0.347-0.772-0.772c0-0.427 0.345-0.772 0.772-0.772zM12.948 4.556c0.427 0 0.773 0.346 0.773 0.773s-0.347 0.772-0.773 0.772c-0.426 0-0.772-0.346-0.772-0.772s0.347-0.773 0.772-0.773zM12.948 6.545c0.427 0 0.773 0.346 0.773 0.772s-0.347 0.772-0.773 0.772c-0.426 0-0.772-0.346-0.772-0.772s0.347-0.772 0.772-0.772zM12.948 8.533c0.427 0 0.773 0.346 0.773 0.773s-0.347 0.773-0.773 0.773c-0.426 0-0.772-0.347-0.772-0.773s0.347-0.773 0.772-0.773zM12.948 10.522c0.427 0 0.773 0.347 0.773 0.772s-0.347 0.772-0.773 0.772c-0.426 0-0.772-0.345-0.772-0.772s0.347-0.772 0.772-0.772zM10.96 6.545c0.426 0 0.772 0.346 0.772 0.772s-0.347 0.772-0.772 0.772c-0.427 0-0.772-0.346-0.772-0.772s0.346-0.772 0.772-0.772zM10.96 8.533c0.426 0 0.772 0.346 0.772 0.773s-0.347 0.773-0.772 0.773c-0.427 0-0.772-0.347-0.772-0.773s0.346-0.773 0.772-0.773z"></path>
</svg>
<svg id="icon-warranty" width="28" height="32" viewBox="0 0 28 32" x="96" y="0">
<path fill="#fff" d="M12.75 28.658c-0.017-0.021-1.722-2.133-2.069-2.586-0.217-0.283-0.543-0.439-0.918-0.439-0.42 0-0.794 0.192-0.905 0.255l-0.9 0.45c-0.291-0.079-0.917-0.32-1.523-1.029-0.539-0.63-0.535-1.475-0.506-1.821l0.967-0.967c0.508-0.446 0.402-1.069 0.204-1.384l-0.036-0.051s-2.111-2.662-2.407-3.036c-0.162-0.205-0.406-0.318-0.687-0.318-0.468 0-0.965 0.324-1.109 0.425-1.786 1.272-1.901 2.39-1.909 2.513l-0.004 0.068 0.012 0.067c1.052 5.863 4.271 8.392 5.818 9.607 0.188 0.148 0.351 0.276 0.468 0.378 1.077 0.943 2.258 1.045 2.716 1.045 0.39-0 0.735-0.066 0.999-0.192 0.716-0.341 1.547-1.314 1.784-1.605 0.41-0.502 0.211-1.083 0.028-1.347l-0.026-0.034zM10.47 30.607c-0.082 0.039-0.258 0.081-0.506 0.081-0.256 0-1.154-0.055-1.96-0.76-0.14-0.123-0.314-0.259-0.515-0.417-1.427-1.121-4.386-3.446-5.379-8.81 0.047-0.161 0.3-0.81 1.415-1.603 0.1-0.070 0.215-0.132 0.335-0.183l0.012-0.005 2.216 2.795-1.235 1.235-0.033 0.173c-0.013 0.069-0.314 1.708 0.743 2.944 1.032 1.206 2.174 1.422 2.393 1.453l0.178 0.025 1.254-0.627 0.036-0.019c0.046-0.027 0.219-0.106 0.34-0.106 0.006 0 0.011 0 0.014 0 0.353 0.459 1.822 2.281 2.051 2.564 0 0.001 0 0.001 0.001 0.002v-0c-0.42 0.508-1.013 1.094-1.359 1.259zM22.622 10.802c0.905-0.85 1.174-1.965 0.826-3.411-0.045-0.181-0.207-0.314-0.399-0.314-0.106 0-0.202 0.040-0.275 0.105l0-0-1.349 1.215c-0.236-0.13-0.603-0.402-0.733-0.875l1.116-1.104c0.075-0.074 0.122-0.178 0.122-0.292 0-0.105-0.040-0.201-0.105-0.274l0 0-0.031-0.034c-0.031-0.035-0.068-0.064-0.109-0.086l-0.002-0.001c-0.026-0.014-0.654-0.347-1.448-0.347-0.773 0-1.454 0.315-1.97 0.912-0.985 1.139-0.748 2.468-0.581 3.031l-0.572 0.572-1.688-1.516 0.774-0.536-3.289-2.252-1.74 1.74 2.252 3.289 0.536-0.774 1.516 1.687-0.541 0.541c-0.246-0.078-0.637-0.173-1.093-0.173-0.891 0-1.68 0.357-2.291 1.044-0.044 0.054-1.083 1.34-0.451 3.056 0.059 0.158 0.209 0.269 0.385 0.269 0.104 0 0.198-0.038 0.271-0.102l-0 0 1.361-1.191c0.217 0.093 0.594 0.341 0.765 0.972l-1.212 1.233c-0.073 0.074-0.118 0.176-0.118 0.288 0 0.194 0.134 0.356 0.315 0.399l0.003 0.001c0.018 0.004 0.447 0.102 1.013 0.102 1.122 0 1.988-0.373 2.502-1.078 0.552-0.757 0.672-1.548 0.655-2.148l2.689 2.687c0.25 0.207 0.709 0.447 1.223 0.447 0.365 0 0.759-0.122 1.124-0.463l0.922-0.922c0.822-0.879 0.371-1.92 0.016-2.347l-2.781-2.783c0.169 0.017 0.352 0.030 0.545 0.030 0.802-0 1.423-0.201 1.845-0.597zM13.875 8.53l-0.449 0.648-1.194-1.744 0.776-0.777 1.744 1.194-0.648 0.449 2.427 2.18-0.476 0.476-2.18-2.427zM16.101 14.031c0.018 0.051 0.429 1.271-0.382 2.384-0.455 0.623-1.271 0.743-1.871 0.74l0.772-0.786c0.093-0.095 0.135-0.228 0.112-0.359-0.294-1.665-1.599-1.885-1.655-1.893-0.019-0.003-0.040-0.005-0.062-0.005-0.104 0-0.199 0.038-0.271 0.102l0-0-1.018 0.891c-0.086-0.912 0.396-1.557 0.453-1.63 0.447-0.497 1.005-0.749 1.662-0.749 0.577 0 1.023 0.199 1.025 0.2 0.051 0.024 0.11 0.038 0.172 0.038 0.113 0 0.216-0.046 0.29-0.12l3.118-3.118c0.074-0.074 0.12-0.177 0.12-0.29 0-0.059-0.012-0.115-0.035-0.165l0.001 0.003c-0.006-0.014-0.573-1.369 0.354-2.441 0.36-0.417 0.814-0.628 1.349-0.628 0.202 0 0.391 0.030 0.552 0.069l-0.828 0.819c-0.075 0.074-0.122 0.178-0.122 0.292 0 0.017 0.001 0.035 0.003 0.051l-0-0.002c0.166 1.362 1.472 1.818 1.527 1.836 0.039 0.014 0.084 0.021 0.131 0.021 0.106 0 0.202-0.040 0.275-0.106l-0 0 0.993-0.894c0.061 0.798-0.167 1.404-0.707 1.91-0.33 0.31-0.879 0.375-1.283 0.375-0.605 0-1.141-0.142-1.146-0.143-0.032-0.009-0.069-0.014-0.107-0.014-0.114 0-0.217 0.046-0.291 0.121l-3.036 3.063c-0.073 0.075-0.118 0.177-0.118 0.29 0 0.049 0.008 0.095 0.024 0.139l-0.001-0.003zM17.003 14.333v0zM22.404 15.931l-0.899 0.899c-0.533 0.489-1.132 0.071-1.243-0.014l-3.059-3.060 2.118-2.137 3.070 3.070c0.076 0.097 0.508 0.704 0.014 1.243zM19.77 11.304l0.011 0.002c-0.008-0.001-0.012-0.002-0.015-0.003l0.004 0.001z"></path>
<path fill="#fff" d="M17.093 0.985c-5.975 0-10.818 4.843-10.818 10.818 0 5.5 4.106 10.038 9.419 10.725v4.303s9.426-3.486 11.81-12.082c0.013-0.046 0.023-0.088 0.035-0.133 0.019-0.070 0.037-0.139 0.054-0.21 0.011-0.043 0.020-0.084 0.029-0.126 0.183-0.744 0.288-1.598 0.288-2.477v-0c0-5.975-4.843-10.818-10.818-10.818zM26.504 14.018l-0.002 0.009-0.005 0.021c-0.006 0.028-0.012 0.056-0.020 0.085-0.015 0.062-0.031 0.123-0.049 0.191l-0.017 0.066c-0.007 0.029-0.011 0.047-0.016 0.064l0.003-0.011c-0.913 3.291-3.039 6.187-6.319 8.606-1.21 0.892-2.364 1.553-3.236 1.998v-3.529l-1.002-0.129c-4.799-0.62-8.418-4.741-8.418-9.586 0-5.332 4.338-9.669 9.669-9.669s9.669 4.338 9.669 9.669c-0.001 0.786-0.095 1.55-0.272 2.282l0.014-0.066z"></path>
<path fill="#3a3a3a" d="M8.957 30.851c-0.458 0-1.639-0.102-2.717-1.044-0.117-0.103-0.28-0.23-0.468-0.378-1.547-1.215-4.766-3.744-5.818-9.607l-0.012-0.067 0.004-0.068c0.007-0.123 0.122-1.241 1.909-2.513 0.144-0.101 0.641-0.425 1.109-0.425 0.28 0 0.524 0.113 0.687 0.318 0.296 0.374 2.407 3.036 2.407 3.036l0.036 0.051c0.198 0.314 0.303 0.938-0.204 1.384l-0.967 0.967c-0.029 0.347-0.032 1.191 0.506 1.821 0.606 0.708 1.232 0.95 1.523 1.029l0.9-0.45c0.111-0.063 0.484-0.255 0.905-0.255 0.375 0 0.701 0.156 0.918 0.439 0.347 0.454 2.052 2.565 2.069 2.586l0.025 0.034c0.183 0.264 0.383 0.845-0.028 1.347-0.237 0.29-1.067 1.264-1.784 1.605-0.264 0.125-0.609 0.192-0.999 0.192zM1.103 19.715c0.993 5.363 3.953 7.689 5.379 8.81 0.201 0.158 0.375 0.295 0.515 0.417 0.806 0.705 1.704 0.76 1.96 0.76 0.248 0 0.424-0.042 0.506-0.081 0.346-0.165 0.939-0.751 1.359-1.259l-0.001-0.002c-0.229-0.283-1.699-2.104-2.051-2.564-0.004-0-0.009-0-0.013-0-0 0-0.001 0-0.001 0h0c-0.121 0-0.294 0.079-0.34 0.106l-0.036 0.019-1.254 0.627-0.178-0.025c-0.219-0.031-1.362-0.247-2.393-1.453-1.056-1.235-0.756-2.874-0.743-2.944l0.033-0.173 1.235-1.235-2.216-2.795c-0.1 0.039-0.241 0.113-0.348 0.187-1.115 0.793-1.367 1.443-1.415 1.603z"></path>
<path fill="#f0c42e" d="M12.873 16.991c-0.566 0-0.995-0.098-1.013-0.102-0.183-0.044-0.317-0.206-0.317-0.4 0-0.112 0.045-0.213 0.118-0.288l-0 0 1.212-1.233c-0.17-0.631-0.547-0.879-0.765-0.972l-1.361 1.191c-0.072 0.063-0.166 0.101-0.27 0.101-0.176 0-0.326-0.11-0.384-0.265l-0.001-0.003c-0.631-1.716 0.407-3.002 0.451-3.056 0.611-0.687 1.4-1.044 2.291-1.044 0.456 0 0.847 0.094 1.093 0.173l2.751-2.751c-0.166-0.563-0.403-1.893 0.581-3.031 0.516-0.596 1.197-0.912 1.97-0.912 0.794 0 1.422 0.333 1.448 0.347 0.042 0.022 0.079 0.052 0.111 0.087l0.031 0.034c0.146 0.163 0.139 0.412-0.017 0.566l-1.116 1.104c0.129 0.472 0.497 0.744 0.733 0.875l1.349-1.215c0.072-0.065 0.169-0.105 0.274-0.105 0.192 0 0.354 0.133 0.398 0.311l0.001 0.003c0.348 1.446 0.078 2.561-0.826 3.411-0.422 0.396-1.043 0.597-1.845 0.597-0.458 0-0.874-0.067-1.122-0.117l-2.708 2.733c0.12 0.522 0.268 1.743-0.564 2.884-0.514 0.705-1.379 1.078-2.502 1.078zM12.841 16.171c0.599 0.002 1.416-0.117 1.871-0.74 0.811-1.113 0.4-2.333 0.382-2.384-0.015-0.040-0.023-0.087-0.023-0.136 0-0.113 0.045-0.215 0.119-0.29l-0 0 3.036-3.063c0.074-0.075 0.177-0.121 0.291-0.121 0.038 0 0.075 0.005 0.11 0.015l-0.003-0.001c0.005 0.001 0.54 0.143 1.146 0.143 0.403 0 0.954-0.065 1.283-0.375 0.54-0.507 0.768-1.112 0.707-1.91l-0.993 0.894c-0.073 0.065-0.169 0.105-0.275 0.105-0.047 0-0.092-0.008-0.134-0.022l0.003 0.001c-0.055-0.019-1.361-0.474-1.527-1.836-0.002-0.015-0.003-0.032-0.003-0.050 0-0.114 0.047-0.217 0.122-0.291l0-0 0.828-0.819c-0.165-0.043-0.356-0.068-0.551-0.069h-0.001c-0.535 0-0.989 0.211-1.349 0.628-0.927 1.073-0.36 2.428-0.354 2.441 0.066 0.154 0.032 0.334-0.087 0.452l-3.118 3.118c-0.074 0.074-0.177 0.12-0.29 0.12-0.063 0-0.122-0.014-0.175-0.039l0.002 0.001c-0.003-0.001-0.449-0.2-1.026-0.2-0.656 0-1.215 0.252-1.662 0.749-0.057 0.073-0.539 0.717-0.453 1.63l1.018-0.891c0.072-0.063 0.167-0.101 0.27-0.101 0.022 0 0.044 0.002 0.065 0.005l-0.002-0c0.055 0.009 1.361 0.228 1.654 1.893 0.004 0.021 0.006 0.046 0.006 0.071 0 0.112-0.045 0.214-0.118 0.288l-0.772 0.786z"></path>
<path fill="#3a3a3a" d="M12.951 8.866l1.516 1.687 0.581-0.581-2.18-2.427-0.449 0.648-1.194-1.743 0.777-0.777 1.744 1.194-0.648 0.449 2.427 2.18 0.581-0.581-1.687-1.516 0.774-0.536-3.289-2.252-1.74 1.74 2.252 3.289zM19.224 10.384c-0.226-0.024-0.423-0.054-0.617-0.094l0.040 0.007-0.334 0.337 3.070 3.070c0.076 0.097 0.508 0.704 0.014 1.243l-0.899 0.899c-0.533 0.489-1.132 0.071-1.243-0.014l-3.059-3.060-0.257 0.259c0.040 0.176 0.083 0.432 0.091 0.736l2.69 2.687c0.25 0.207 0.709 0.447 1.223 0.447 0.366 0 0.759-0.122 1.125-0.463l0.922-0.922c0.822-0.879 0.37-1.92 0.016-2.347l-2.781-2.783z"></path>
<path fill="#3a3a3a" d="M16.086 1.149c5.332 0 9.669 4.338 9.669 9.669 0 0.74-0.087 1.485-0.258 2.215l-0.001 0.004-0.001 0.004-0.005 0.021c-0.006 0.028-0.012 0.056-0.019 0.085-0.015 0.062-0.031 0.123-0.050 0.191l-0.017 0.066c-0.004 0.018-0.009 0.035-0.014 0.053-0.913 3.291-3.039 6.187-6.319 8.606-1.21 0.892-2.364 1.553-3.236 1.998v-3.529l-1.002-0.129c-4.799-0.62-8.417-4.741-8.417-9.586 0-5.332 4.338-9.669 9.669-9.669zM16.086 0c-5.974 0-10.818 4.843-10.818 10.818 0 5.5 4.106 10.038 9.419 10.725v4.303s9.426-3.486 11.81-12.082c0.013-0.046 0.023-0.088 0.034-0.133 0.019-0.070 0.037-0.139 0.054-0.21 0.010-0.043 0.020-0.084 0.029-0.126 0.183-0.744 0.288-1.598 0.288-2.477v-0c-0-5.975-4.843-10.818-10.818-10.818z"></path>
</svg>
<svg id="icon-popular-6" width="61" height="32" viewBox="0 0 61 32" x="144" y="0">
<path d="M5.589 0.12c-2.572 0.226-4.737 0.738-5.323 1.239-0.335 0.286-0.335 0.286-0.108 0.536 0.299 0.334 1.722 0.763 3.361 1.037 1.854 0.31 5.802 0.321 6.365 0.024 0.562-0.31 0.753-0.656 0.753-1.383 0-0.751-0.288-1.12-1.029-1.323-0.671-0.179-2.681-0.25-4.020-0.131zM11.953 0.226c-0.060 0.131-0.12 0.978-0.12 1.907 0 1.883 0.072 1.752-1.017 1.824l-0.478 0.036-0.060 1.18-0.060 1.18-0.55 0.131c-1.197 0.31-1.855 1.203-1.759 2.455 0.059 0.894 0.478 1.549 1.196 1.895 0.514 0.238 0.682 0.249 5.216 0.249 2.572 0 4.701 0.037 4.725 0.083 0.024 0.060-0.515 4.363-1.197 9.572-0.67 5.208-1.244 9.738-1.256 10.048-0.024 0.75 0.383 1.215 1.089 1.215 0.574 0 0.933-0.297 1.076-0.881 0.060-0.238 0.694-4.793 1.4-10.12 0.706-5.316 1.328-9.678 1.363-9.678 0.048 0 0.503 0.655 1.017 1.454 1.363 2.145 1.113 2.002 3.541 2.002h2.022v2.611l-2.381 0.036c-2.189 0.036-2.416 0.059-2.727 0.285-0.73 0.537-0.754 0.656-0.754 5.091 0 4.422 0.012 4.541 0.706 5.125l0.395 0.322h14.546l0.395-0.323c0.694-0.583 0.705-0.703 0.705-5.125 0-4.434-0.023-4.554-0.752-5.090-0.311-0.226-0.538-0.25-2.728-0.285l-2.38-0.036v-2.611h2.022c2.427 0 2.176 0.143 3.54-2.002 0.515-0.799 0.969-1.454 1.017-1.454 0.035 0 0.658 4.362 1.363 9.678 0.706 5.328 1.34 9.882 1.4 10.12 0.144 0.584 0.502 0.882 1.076 0.882 0.705 0 1.113-0.466 1.088-1.216-0.012-0.311-0.586-4.84-1.257-10.048-0.681-5.209-1.22-9.512-1.195-9.572 0.023-0.047 2.152-0.083 4.726-0.083 4.533 0 4.7-0.012 5.214-0.249 0.718-0.346 1.136-1.002 1.197-1.895 0.096-1.252-0.562-2.145-1.759-2.455l-0.55-0.131-0.059-1.18-0.060-1.18-0.478-0.036c-1.088-0.072-1.017 0.059-1.017-1.824 0-0.929-0.059-1.776-0.119-1.907-0.096-0.167-0.252-0.226-0.634-0.226-0.287 0-0.574 0.059-0.659 0.143-0.096 0.095-0.144 0.679-0.144 1.824s-0.047 1.728-0.143 1.824c-0.083 0.083-0.418 0.143-0.765 0.143-0.754 0-0.765 0.024-0.765 1.442v1.061h-31.103v-1.061c0-1.418-0.011-1.442-0.765-1.442-0.347 0-0.682-0.060-0.765-0.143-0.096-0.095-0.144-0.679-0.144-1.824s-0.048-1.728-0.144-1.824c-0.083-0.083-0.371-0.143-0.658-0.143-0.383 0-0.538 0.059-0.634 0.226zM31.822 18.833c1.34 0.417 2.501 1.574 2.86 2.861 0.204 0.716 0.144 1.955-0.132 2.682-0.323 0.87-1.245 1.86-2.117 2.289-0.598 0.298-0.813 0.333-1.818 0.333s-1.22-0.036-1.818-0.333c-0.874-0.429-1.795-1.419-2.118-2.289-0.275-0.727-0.335-1.966-0.131-2.682 0.347-1.263 1.507-2.444 2.811-2.861 0.933-0.298 1.53-0.298 2.464 0z"></path>
<path d="M29.586 20.609c-0.945 0.429-1.626 1.692-1.423 2.657 0.359 1.705 2.237 2.575 3.708 1.717 0.921-0.537 1.387-1.645 1.136-2.682-0.263-1.108-1.268-1.919-2.392-1.919-0.3 0-0.754 0.108-1.030 0.227zM16.738 0.071c-1.818 0.31-2.093 0.525-2.093 1.597 0 0.846 0.215 1.12 1.052 1.371 0.719 0.214 3.326 0.238 4.87 0.059 3.181-0.381 5.25-1.18 4.498-1.74-0.587-0.417-2.273-0.87-4.199-1.108-1.148-0.143-3.708-0.25-4.128-0.179zM41.5 0.12c-2.931 0.274-5.502 0.965-5.502 1.478 0 0.799 3.636 1.609 7.249 1.621 2.692 0 3.337-0.298 3.337-1.549 0-0.846-0.287-1.216-1.101-1.431-0.765-0.191-2.632-0.238-3.983-0.119zM52.302 0.131c-0.825 0.107-1.4 0.357-1.591 0.691-0.179 0.357-0.144 1.347 0.071 1.657 0.43 0.608 0.766 0.679 3.278 0.679 1.698 0 2.691-0.060 3.648-0.226 1.639-0.275 3.062-0.704 3.361-1.037 0.227-0.25 0.227-0.25-0.108-0.536-0.621-0.524-2.763-1.013-5.526-1.239-1.614-0.131-2.081-0.131-3.134 0.012z"></path>
</svg>
<svg id="icon-popular-5" width="18" height="32" viewBox="0 0 18 32" x="240" y="0">
<path d="M17.794 10.513h-0.495v-1.515c0-1.65-1.335-2.999-2.966-2.999h-11.368c-1.631 0-2.966 1.35-2.966 2.999v13.998c0 1.65 1.335 2.999 2.966 2.999h11.368c1.631 0 2.966-1.35 2.966-2.999v-1.115h0.495c0.137-0.001 0.247-0.113 0.247-0.249 0 0 0 0 0 0v0-4.499c0-0 0-0 0-0 0-0.137-0.11-0.248-0.247-0.25h-0.495v-2.87h0.495c0.272 0 0.494-0.225 0.494-0.5v-2.499c0-0 0-0 0-0.001 0-0.274-0.221-0.497-0.494-0.499h-0zM11.129 9.498c0.955 0 1.73 0.783 1.73 1.75s-0.775 1.75-1.73 1.75-1.73-0.783-1.73-1.75 0.775-1.75 1.73-1.75zM6.186 9.498c0.955 0 1.73 0.783 1.73 1.75s-0.775 1.75-1.73 1.75c-0.955 0-1.73-0.783-1.73-1.75s0.775-1.75 1.73-1.75zM1.73 16.13c0-0.966 0.774-1.75 1.73-1.75s1.73 0.783 1.73 1.75-0.775 1.75-1.73 1.75c-0.956 0-1.73-0.783-1.73-1.75zM6.186 22.496c-0.955 0-1.73-0.783-1.73-1.75s0.775-1.75 1.73-1.75c0.955 0 1.73 0.783 1.73 1.75s-0.775 1.75-1.73 1.75zM6.673 15.997c0-1.104 0.885-2 1.977-2s1.977 0.895 1.977 2-0.885 2-1.977 2c-1.092-0-1.977-0.895-1.977-2zM11.129 22.496c-0.955 0-1.73-0.783-1.73-1.75s0.775-1.75 1.73-1.75 1.73 0.783 1.73 1.75-0.775 1.75-1.73 1.75zM13.84 17.88c-0.956 0-1.73-0.783-1.73-1.75s0.774-1.75 1.73-1.75c0.955 0 1.73 0.783 1.73 1.75s-0.775 1.75-1.73 1.75zM3.15 4.999h11c0.275 0 0.468-0.222 0.426-0.494l-0.528-3.516-0.001-0.001c-0.082-0.543-0.598-0.988-1.148-0.988h-8.5c-0.551 0-1.067 0.445-1.148 0.989l-0.527 3.516c-0.041 0.272 0.151 0.495 0.426 0.495zM14.15 26.995h-11c-0.275 0-0.467 0.223-0.426 0.495l0.527 3.516c0.082 0.544 0.598 0.989 1.148 0.989h8.5c0.55 0 1.066-0.445 1.148-0.988v-0.001l0.527-3.516c0.042-0.272-0.151-0.495-0.426-0.495z"></path>
</svg>
<svg id="icon-popular-3" width="26" height="32" viewBox="0 0 26 32" x="288" y="0">
<path d="M19.623 0.548c0-0.271-0.213-0.548-0.482-0.548h-15.811c-0.27 0-0.508 0.277-0.508 0.548v1.295h16.8v-1.295zM19.936 30.091h-3.53v-3.819h-2.559v0.922h-6.942c-0.198-0.461-0.646-0.79-1.17-0.79h-4.426c-0.705-0-1.309 0.589-1.309 1.297v1.11c0 0.708 0.604 1.28 1.309 1.28h4.427c0.556 0 1.027-0.33 1.202-0.856h6.909v0.856h-3.501c-0.196 0-0.371 0.161-0.371 0.358v1.167c0 0.197 0.176 0.385 0.371 0.385h9.59c0.196 0 0.342-0.189 0.342-0.385v-1.167c0-0.197-0.146-0.357-0.342-0.357zM22.314 4.557c-0.326-1.083-1.314-1.857-2.483-1.857-0.003 0-0.005 0-0.008 0h-17.194c-1.434 0-2.629 1.144-2.629 2.582v17.251c0 1.439 1.195 2.619 2.629 2.619h17.194c1.434 0 2.621-1.18 2.621-2.619v-3.805c2.235-1.563 3.679-4.124 3.679-7.023 0-0.009 0-0.018-0-0.027v0.001c-0-2.972-1.52-5.584-3.809-7.121zM4.501 22.86c-1.199 0-2.17-0.975-2.17-2.178s0.972-2.178 2.17-2.178 2.171 0.975 2.171 2.178c0 1.203-0.972 2.178-2.171 2.178zM6.694 10.867c0 0 0 0 0 0.001 0 0.288-0.233 0.522-0.522 0.522h-3.288c-0.288-0-0.522-0.234-0.522-0.522 0-0 0-0.001 0-0.001v0-5.208c0-0 0-0.001 0-0.001 0-0.288 0.233-0.522 0.522-0.522h3.288c0.288 0 0.522 0.234 0.522 0.522 0 0 0 0.001 0 0.001v-0 5.208zM17.568 19.074c-4.074 0-7.377-3.314-7.377-7.402s3.303-7.402 7.377-7.402c4.074 0 7.378 3.314 7.378 7.402s-3.303 7.402-7.378 7.402z"></path>
<path d="M22.051 11.673c0 2.484-2.007 4.498-4.483 4.498s-4.483-2.014-4.483-4.498c0-2.484 2.007-4.498 4.483-4.498s4.483 2.014 4.483 4.498z"></path>
<path d="M12.137 11.673c0 0.291-0.236 0.528-0.528 0.528s-0.528-0.236-0.528-0.528c0-0.291 0.236-0.528 0.528-0.528s0.528 0.236 0.528 0.528z"></path>
<path d="M24.054 11.673c0 0.291-0.236 0.528-0.528 0.528s-0.528-0.236-0.528-0.528c0-0.291 0.236-0.528 0.528-0.528s0.528 0.236 0.528 0.528z"></path>
<path d="M14.913 6.618c0 0.292-0.236 0.528-0.528 0.528s-0.528-0.236-0.528-0.528c0-0.292 0.236-0.528 0.528-0.528s0.528 0.236 0.528 0.528z"></path>
<path d="M21.276 16.727c0 0.292-0.235 0.528-0.526 0.528s-0.526-0.236-0.526-0.528c0-0.292 0.235-0.528 0.526-0.528s0.526 0.236 0.526 0.528z"></path>
<path d="M21.014 6.461c0 0.292-0.236 0.528-0.528 0.528s-0.528-0.236-0.528-0.528c0-0.292 0.236-0.528 0.528-0.528s0.528 0.236 0.528 0.528z"></path>
<path d="M15.177 16.885c0 0.291-0.236 0.528-0.528 0.528s-0.528-0.236-0.528-0.528c0-0.291 0.236-0.528 0.528-0.528s0.528 0.236 0.528 0.528z"></path>
</svg>
<svg id="icon-popular-2" width="24" height="32" viewBox="0 0 24 32" x="336" y="0">
<path d="M22.652 1.097h-21.741c-0.482 0-0.872 0.39-0.872 0.872v0 12.694c0 0 0 0 0 0.001 0 0.481 0.39 0.872 0.872 0.872 0 0 0 0 0 0h21.741c0 0 0 0 0 0 0.482 0 0.872-0.39 0.872-0.872 0-0 0-0 0-0v0-12.694c-0-0.482-0.391-0.872-0.872-0.872-0 0-0 0-0 0v0zM2.295 10.184h-0.062c-0.482-0-0.872-0.391-0.872-0.872v0-1.992c0-0.482 0.39-0.872 0.872-0.872 0 0 0 0 0 0h0.062v3.736zM19.042 14.334h-15.393v-12.036h15.393v12.036zM21.443 9.45c-0.626 0-1.134-0.507-1.134-1.134s0.508-1.134 1.134-1.134c0.626 0 1.134 0.508 1.134 1.134s-0.508 1.134-1.134 1.134v0zM8.615 0h6.334v0.754h-6.334zM12.748 17.74v-0.813h2.201v-0.754h-6.333v0.754h2.2v9.64c-0.59 0.263-0.994 0.845-0.994 1.52 0 0 0 0 0 0v0 3.913h3.921v-3.913c0-0 0-0 0-0 0-0.676-0.404-1.257-0.984-1.515l-0.011-0.004v-7.655h1.312l1.381 0.332v-1.835l-1.381 0.332h-1.311z"></path>
</svg>
<svg id="icon-popular-1" width="56" height="32" viewBox="0 0 56 32" x="384" y="0">
<path d="M48.949 18.99v-7.352c0-0.762 0.608-1.379 1.359-1.379l4.844 0.92v-4.767c0-1.37-0.994-1.996-2.445-2.481l-13.491-3.828c0.94 0.809 1.099 1.187 1.099 2.558v26.303c0 1.371-0.262 2.366-1.144 3.031l13.536-4.111c1.397-0.485 2.445-2.453 2.445-3.824v-4.604l-4.844 0.912c-0.751 0.001-1.359-0.617-1.359-1.378z"></path>
<path d="M55.348 12.206l-4.421-0.84c-0.586 0-1.061 0.482-1.061 1.077v5.741c0 0.595 0.475 1.078 1.061 1.078l4.421-0.833c0.671-0.244 1.061-0.482 1.061-1.078v-4.069c0-0.595-0.446-0.877-1.061-1.077zM39.081 2.608c0-2.956-2.462-2.594-2.462-2.594s-33.225 2.743-34.967 2.979-1.651 2.552-1.651 2.552l-0.001 21.108c0 2.178 1.512 2.184 1.512 2.184l9.587 0.816 4.734-6.789s0.645-1.064 1.457-1.064c0.813 0 1.415 1.083 1.415 1.083l5.272 7.867s10.993 1.111 13.103 1.111c2.11-0.001 2.001-2.923 2.001-2.923v-26.331zM7.553 21.639c-2.152 0-3.896-2.677-3.896-5.978s1.744-5.978 3.896-5.978c2.152 0 3.896 2.677 3.896 5.978s-1.744 5.978-3.896 5.978zM28.591 22.469c-2.712 0-4.911-3.048-4.911-6.808s2.199-6.808 4.911-6.808c2.712 0 4.912 3.048 4.912 6.808s-2.199 6.808-4.912 6.808z"></path>
</svg>
<svg id="icon-delivery" width="27" height="32" viewBox="0 0 27 32" x="480" y="0">
<path fill="#fff" d="M18.172 7.564c1.585 0 2.916-1.081 3.298-2.546l1.067 0.159c0.019 0.003 0.040 0.005 0.062 0.005 0.211 0 0.385-0.155 0.416-0.357l0-0.002c0.003-0.019 0.005-0.040 0.005-0.062 0-0.211-0.155-0.385-0.357-0.416l-0.002-0-1.081-0.161c0-0.009 0.001-0.018 0.001-0.027 0-0.035-0.001-0.071-0.003-0.106 0 0-0.088-1.272-0.21-1.802s-0.495-0.643-0.495-0.643c-1.906-0.432-3.858-0.476-4.366-0.476s-0.616 0.26-0.616 0.26l-0.615 0.975-0.002-0.001c-0.015 0.024-0.028 0.048-0.043 0.072l-0.005 0.008c-0.29 0.49-0.462 1.079-0.462 1.709 0 0.001 0 0.003 0 0.004v-0c-0 1.882 1.526 3.408 3.408 3.408zM25.665 15.234v-0l-5.218-0.423-1.804-4.119s-0.090-0.541-1.172-1.654c-1.083-1.113-3.278-0.661-3.278-0.661s-4.661 0.872-6.194 1.233c-1.534 0.361-1.594 1.925-1.594 1.925l-0.123 0.882-2.962-0.574c-0.033-0.007-0.071-0.010-0.11-0.010-0.284 0-0.521 0.202-0.576 0.47l-0.001 0.004-1.446 7.462c-0.007 0.033-0.010 0.071-0.010 0.11 0 0.284 0.202 0.521 0.47 0.575l0.004 0.001 9.989 1.936c0.022 0.004 0.045 0.005 0.068 0.006h0c-0.142 0.020-0.252-0.007-0.252-0.007l-1.834-0.361-0.601 3.338-4.597 3.973c-0.337 0.268-0.552 0.678-0.552 1.138 0 0.801 0.649 1.45 1.45 1.45 0.4 0 0.763-0.162 1.025-0.425v0s5.41-4.302 5.771-4.603c0.361-0.3 0.541-0.752 0.541-0.752s0.886-2.722 1.128-3.293c0.165-0.391 0.962-0.211 0.962-0.211l4.465 1.684 1.486 5.671c0.016 0.123 0.047 0.241 0.092 0.352h0c0.22 0.537 0.739 0.908 1.344 0.908 0.8 0 1.449-0.649 1.449-1.449 0-0.12-0.015-0.237-0.042-0.349l0.002 0.010c-0.164-0.969-0.898-5.277-1.085-6.21-0.21-1.052-0.902-1.353-0.902-1.353s-4.15-2.255-4.42-2.406c-0.271-0.15-0.21-0.541-0.21-0.541l0.767-2.796 0.541 1.143s0.316 0.639 0.797 0.662l6.509 0.16c0.801 0 1.45-0.649 1.45-1.45 0-0 0-0 0-0v0c-0-0.757-0.582-1.379-1.322-1.443l-0.005-0zM11.728 12.255l-0.349 1.147-2.013-0.39 0.107-0.487 2.255-0.27zM11.289 21.128l-8.84-1.713 1.223-6.313 2.447 0.474-0.316 2.257-0.125 0.86c-0.001 0.005-0.002 0.011-0.002 0.016l-0.003 0.025h0c-0.008 0.056-0.012 0.12-0.012 0.185 0 0.801 0.649 1.45 1.449 1.45h0c0.8-0 1.449-0.649 1.449-1.449 0-0.065-0.004-0.128-0.012-0.19l0.001 0.007 0.566-2.58 3.398 0.658-1.224 6.313zM4.888 3.319h7.42c0.215 0 0.39-0.175 0.39-0.388s-0.176-0.388-0.39-0.388h-7.42c-0.215 0-0.39 0.175-0.39 0.388s0.176 0.388 0.39 0.388zM7.43 4.493c-0.215 0-0.39 0.175-0.39 0.388s0.176 0.388 0.39 0.388h4.48c0.215 0 0.39-0.175 0.39-0.388-0.001-0.215-0.175-0.388-0.39-0.388 0 0 0 0 0 0h-4.48z"></path>
<path fill="#3a3a3a" d="M16.995 6.387c1.585 0 2.916-1.081 3.298-2.546l1.067 0.159c0.019 0.003 0.040 0.005 0.062 0.005 0.211 0 0.385-0.155 0.416-0.357l0-0.002c0.003-0.019 0.005-0.040 0.005-0.062 0-0.211-0.155-0.385-0.357-0.416l-0.002-0-1.081-0.161c0-0.009 0.001-0.018 0.001-0.027 0-0.035-0.001-0.071-0.003-0.106 0 0-0.088-1.272-0.21-1.802s-0.495-0.643-0.495-0.643c-1.906-0.432-3.858-0.476-4.366-0.476s-0.616 0.26-0.616 0.26l-0.615 0.975-0.002-0.001c-0.015 0.024-0.028 0.048-0.043 0.072l-0.005 0.008c-0.29 0.49-0.462 1.079-0.462 1.709 0 0.001 0 0.003 0 0.004v-0c0 1.882 1.526 3.408 3.408 3.408zM24.488 14.057v-0l-5.218-0.423-1.804-4.119s-0.090-0.541-1.172-1.654c-1.083-1.113-3.278-0.661-3.278-0.661s-4.661 0.872-6.194 1.233c-1.534 0.361-1.594 1.925-1.594 1.925l-0.601 4.3-0.125 0.86c-0.001 0.005-0.002 0.011-0.002 0.016l-0.003 0.025h0c-0.008 0.056-0.012 0.12-0.012 0.185 0 0.801 0.649 1.45 1.449 1.45h0c0.8-0 1.449-0.649 1.449-1.449 0-0.065-0.004-0.128-0.012-0.19l0.001 0.007 0.924-4.211 2.255-0.27-0.349 1.147 1.931 0.374c0.272 0.055 0.474 0.292 0.474 0.576 0 0.039-0.004 0.077-0.011 0.114l0.001-0.004-1.446 7.462c-0.055 0.272-0.291 0.473-0.575 0.474h-0c-0.014 0-0.028-0.003-0.043-0.004-0.142 0.020-0.252-0.007-0.252-0.007l-1.834-0.361-0.601 3.338-4.597 3.973c-0.337 0.268-0.552 0.678-0.552 1.138 0 0.801 0.649 1.45 1.45 1.45 0.4 0 0.763-0.162 1.025-0.425v0s5.41-4.302 5.771-4.603c0.361-0.3 0.541-0.752 0.541-0.752s0.886-2.722 1.128-3.293c0.165-0.391 0.962-0.211 0.962-0.211l4.465 1.684 1.486 5.671c0.016 0.123 0.047 0.241 0.092 0.352h0c0.22 0.537 0.739 0.908 1.344 0.908 0.8 0 1.449-0.649 1.449-1.449 0-0.12-0.015-0.237-0.042-0.349l0.002 0.010c-0.164-0.969-0.898-5.277-1.085-6.21-0.21-1.052-0.902-1.353-0.902-1.353s-4.15-2.255-4.42-2.405c-0.271-0.15-0.21-0.541-0.21-0.541l0.767-2.796 0.541 1.143s0.316 0.639 0.797 0.662l6.509 0.16c0.798-0.003 1.444-0.651 1.444-1.45 0-0.756-0.578-1.376-1.316-1.444l-0.006-0z"></path>
<path fill="#f0c42e" d="M10.531 21.217h0c0.014 0.001 0.029 0.004 0.043 0.004 0.275 0 0.521-0.195 0.575-0.474l1.446-7.462c0.007-0.033 0.010-0.071 0.010-0.11 0-0.284-0.202-0.521-0.47-0.576l-0.004-0.001-3.944-0.764-0.251 1.144 3.398 0.658-1.224 6.313-8.84-1.713 1.223-6.313 2.447 0.474 0.162-1.161-2.962-0.574c-0.033-0.007-0.071-0.010-0.11-0.010-0.284 0-0.521 0.202-0.576 0.47l-0.001 0.004-1.446 7.462c-0.007 0.033-0.010 0.071-0.010 0.11 0 0.284 0.202 0.521 0.47 0.575l0.004 0.001 9.989 1.936c0.022 0.004 0.045 0.005 0.067 0.006z"></path>
<path fill="#f0c52e" d="M11.52 1.753c-0.001 0.215-0.175 0.388-0.39 0.388 0 0 0 0 0 0h-7.42c-0.215 0-0.39-0.175-0.39-0.388s0.176-0.388 0.39-0.388h7.42c0.215 0 0.39 0.175 0.39 0.388zM11.123 3.703c0 0.213-0.176 0.388-0.39 0.388h-4.48c-0.215 0-0.39-0.175-0.39-0.388 0.001-0.215 0.175-0.388 0.39-0.388 0 0 0 0 0 0h4.48c0.215 0 0.39 0.175 0.39 0.388z"></path>
</svg>
<svg id="icon-credit" width="27" height="32" viewBox="0 0 27 32" x="528" y="0">
<path fill="#fff" d="M26.553 11.724c0 1.387-1.124 2.511-2.511 2.511s-2.511-1.124-2.511-2.511c0-1.387 1.124-2.511 2.511-2.511s2.511 1.124 2.511 2.511z"></path>
<path fill="#fff" d="M15.168 23.752l-1.204 3.043-3.885 2.539c-0.372 0.213-0.618 0.608-0.619 1.060v0c0 0.674 0.546 1.22 1.22 1.22v0c0 0 0.001 0 0.001 0 0.263 0 0.506-0.084 0.704-0.225l-0.004 0.003c0.64-0.404 3.804-2.397 4.34-2.703 0.596-0.34 0.702-0.872 0.702-0.872l0.83-2.723-0.979-0.447c-0.979-0.447-1.107-0.893-1.107-0.893z"></path>
<path fill="#fff" d="M23.714 24.079s-0.197-0.653-0.779-0.88-3.079-1.319-3.079-1.319l2.624-4.355s0.653-1.532-0.057-2.284-2.34-1.66-2.34-1.66h-1.28l2.689-4.562c0.571-0.968 0.246-2.227-0.722-2.797l-8.407-4.956c-0.968-0.571-2.226-0.245-2.797 0.722l-8.010 13.588c-0.57 0.968-0.245 2.226 0.722 2.797l8.407 4.955c0.968 0.571 2.227 0.245 2.797-0.722l3.904-6.622h1.378l-2.511 4.461s-0.874 1.568-0.057 2.426c0.716 0.752 2.156 1.177 2.156 1.177l2.936 1.107 0.868 5.326 0.002-0c0.093 0.581 0.596 1.025 1.203 1.025 0.674 0 1.22-0.546 1.22-1.22 0-0 0-0 0-0v0c0-0.032-0.002-0.064-0.005-0.095l0.005-0.001-0.867-6.113zM3.057 17.055c-0.238-0.141-0.321-0.461-0.181-0.699l8.010-13.588c0.141-0.238 0.461-0.321 0.699-0.181l1.961 1.156-8.528 14.468-1.961-1.156zM12.163 21.83c-0.141 0.238-0.461 0.321-0.699 0.181l-5.126-3.022 8.529-14.467 5.126 3.022c0.239 0.141 0.321 0.461 0.181 0.699l-3.148 5.34h-1.495l-3.39 2.456c-0.079 0.046-0.148 0.096-0.21 0.153l0.001-0.001-0.005 0.004 0 0c-0.247 0.223-0.401 0.545-0.401 0.903 0 0 0 0 0 0v0c0 0.674 0.546 1.22 1.22 1.22v0c0 0 0 0 0.001 0 0.265 0 0.51-0.085 0.709-0.229l-0.004 0.002 0 0 0.012-0.010c0.031-0.023 0.061-0.046 0.089-0.072l1.644-1.325-3.034 5.147z"></path>
<path fill="#f0c42e" d="M8.378 1.012l-8.010 13.588c-0.57 0.968-0.245 2.226 0.722 2.797l8.407 4.955c0.968 0.571 2.227 0.245 2.797-0.722l8.010-13.588c0.571-0.968 0.246-2.227-0.722-2.797l-8.407-4.956c-0.968-0.571-2.226-0.245-2.797 0.722zM1.688 15.378l8.010-13.588c0.141-0.238 0.461-0.321 0.699-0.181l1.961 1.156-8.528 14.468-1.961-1.156c-0.238-0.141-0.321-0.461-0.18-0.699zM18.984 7.264l-8.010 13.588c-0.141 0.238-0.461 0.321-0.699 0.181l-5.126-3.022 8.529-14.467 5.126 3.022c0.239 0.14 0.321 0.461 0.181 0.699z"></path>
<path fill="#3a3a3a" d="M25.532 10.738c0 1.387-1.124 2.511-2.511 2.511s-2.511-1.124-2.511-2.511c0-1.387 1.124-2.511 2.511-2.511s2.511 1.124 2.511 2.511z"></path>
<path fill="#3a3a3a" d="M13.936 22.766l-1.204 3.043-3.885 2.539c-0.372 0.213-0.618 0.608-0.619 1.060v0c0 0.674 0.546 1.22 1.22 1.22v0c0 0 0.001 0 0.001 0 0.263 0 0.506-0.084 0.704-0.225l-0.004 0.003c0.64-0.404 3.804-2.397 4.34-2.703 0.596-0.34 0.702-0.872 0.702-0.872l0.83-2.723-0.979-0.447c-0.979-0.447-1.106-0.893-1.106-0.893zM22.482 23.092s-0.197-0.653-0.779-0.88-3.079-1.319-3.079-1.319l2.624-4.355s0.653-1.532-0.057-2.284-2.34-1.66-2.34-1.66h-4.553l-3.39 2.456c-0.079 0.046-0.148 0.096-0.21 0.153l0.001-0.001-0.005 0.004 0 0.001c-0.247 0.223-0.401 0.545-0.401 0.902 0 0 0 0 0 0v0c0 0.674 0.546 1.22 1.22 1.22v0c0 0 0 0 0.001 0 0.265 0 0.51-0.085 0.709-0.229l-0.004 0.002 0 0 0.012-0.010c0.031-0.023 0.061-0.046 0.089-0.072l2.509-2.022h2.702l-2.511 4.461s-0.874 1.568-0.057 2.426c0.716 0.752 2.156 1.177 2.156 1.177l2.936 1.107 0.868 5.326 0.002-0c0.093 0.581 0.596 1.025 1.203 1.025 0.674 0 1.22-0.546 1.22-1.22 0-0 0-0 0-0v0c0-0.032-0.002-0.064-0.005-0.095l0.005-0.001-0.867-6.113z"></path>
</svg>
</svg>
